<svg width="1512" height="648" viewBox="0 0 1512 648" fill="none" xmlns="http://www.w3.org/2000/svg">
<path opacity="0.7" d="M-19.6353 -46.99C-19.6353 -46.99 -19.6352 -5.47079 32.0001 -9.76281C44.8565 -7.1207 -28.0552 -9.76278 -7.99986 -9.76278C20.2509 -9.76279 -98.969 30.7079 46.0311 18.7079C72.0311 16.5562 212 12 212 12C212 12 276 12 300.187 84.9999C324.373 158 403.305 180.382 436.197 141.131C469.09 101.881 516.57 235.174 538.605 183.395C560.641 131.616 652.571 290.882 672.483 238.646C692.395 186.41 812.74 386.292 857.564 315.029C902.388 243.766 994.975 431.215 1029.84 386.129C1064.71 341.042 1197.22 518.951 1238.39 472.197C1279.56 425.442 1384.12 582.682 1432.01 552.101C1479.9 521.521 1593.29 618.663 1593.29 618.663L1913.56 239.212L1459.06 -251.288L765.063 -343.288L-19.6353 -46.99Z" fill="#97C9F3" stroke="#2B86D2" stroke-opacity="0.04" stroke-width="41"/>
</svg>
