<svg version="1.1" preserveAspectRatio="none" xmlns="http://www.w3.org/2000/svg" width="500" height="500" viewBox="0 0 500 500"><rect width="100%" height="100%" fill="#FFFFFF" fill-opacity="1"/><svg viewBox="208.4082 156.2011 249.8505 176.6" width="333" height="235.37195242755166" x="83.5px" y="132.314px" xmlns="http://www.w3.org/2000/svg" xmlns:xlink="http://www.w3.org/1999/xlink" preserveAspectRatio="none"><defs></defs><style>.companyName {fill:#0C0C0C;fill-opacity:1;}.icon3-str {stroke:#929292;stroke-opacity:1;}.text {fill:#0C0C0C;fill-opacity:1;}</style><g opacity="1" transform="rotate(0 208.4082 311.2011)">
<svg width="249.8505" height="21.6" x="208.4082" y="311.2011" version="1.1" preserveAspectRatio="none" viewBox="2.08 -29.68 346.00000000000006 29.92">
  <g transform="matrix(1 0 0 1 0 0)" class="text"><path id="id-6izo4zJp13" d="M16.72 0.24Q12.56 0.24 9.22-1.60Q5.88-3.44 3.98-6.70Q2.08-9.96 2.08-14L2.08-14Q2.08-18.04 3.98-21.30Q5.88-24.56 9.24-26.40Q12.60-28.24 16.76-28.24L16.76-28.24Q19.88-28.24 22.52-27.20Q25.16-26.16 27-24.16L27-24.16L25.12-22.28Q21.84-25.60 16.84-25.60L16.84-25.60Q13.52-25.60 10.80-24.08Q8.08-22.56 6.54-19.92Q5-17.28 5-14L5-14Q5-10.72 6.54-8.08Q8.08-5.44 10.80-3.92Q13.52-2.40 16.84-2.40L16.84-2.40Q21.88-2.40 25.12-5.76L25.12-5.76L27-3.88Q25.16-1.88 22.50-0.82Q19.84 0.24 16.72 0.24L16.72 0.24Z M42.40 0.20Q39.36 0.20 36.92-1.18Q34.48-2.56 33.08-5Q31.68-7.44 31.68-10.52L31.68-10.52Q31.68-13.60 33.08-16.04Q34.48-18.48 36.92-19.84Q39.36-21.20 42.40-21.20L42.40-21.20Q45.44-21.20 47.88-19.84Q50.32-18.48 51.70-16.04Q53.08-13.60 53.08-10.52L53.08-10.52Q53.08-7.44 51.70-5Q50.32-2.56 47.88-1.18Q45.44 0.20 42.40 0.20L42.40 0.20ZM42.40-2.32Q44.64-2.32 46.42-3.34Q48.20-4.36 49.20-6.24Q50.20-8.12 50.20-10.52L50.20-10.52Q50.20-12.92 49.20-14.80Q48.20-16.68 46.42-17.70Q44.64-18.72 42.40-18.72L42.40-18.72Q40.16-18.72 38.38-17.70Q36.60-16.68 35.58-14.80Q34.56-12.92 34.56-10.52L34.56-10.52Q34.56-8.12 35.58-6.24Q36.60-4.36 38.38-3.34Q40.16-2.32 42.40-2.32L42.40-2.32Z M87.12-21.20Q91.08-21.20 93.34-18.92Q95.60-16.64 95.60-12.20L95.60-12.20L95.60 0L92.76 0L92.76-11.92Q92.76-15.20 91.18-16.92Q89.60-18.64 86.72-18.64L86.72-18.64Q83.44-18.64 81.56-16.62Q79.68-14.60 79.68-11.04L79.68-11.04L79.68 0L76.84 0L76.84-11.92Q76.84-15.20 75.26-16.92Q73.68-18.64 70.76-18.64L70.76-18.64Q67.52-18.64 65.62-16.62Q63.72-14.60 63.72-11.04L63.72-11.04L63.72 0L60.88 0L60.88-21.04L63.60-21.04L63.60-17.20Q64.72-19.12 66.72-20.16Q68.72-21.20 71.32-21.20L71.32-21.20Q73.96-21.20 75.90-20.08Q77.84-18.96 78.80-16.76L78.80-16.76Q79.96-18.84 82.14-20.02Q84.32-21.20 87.12-21.20L87.12-21.20Z M131.56-21.20Q135.52-21.20 137.78-18.92Q140.04-16.64 140.04-12.20L140.04-12.20L140.04 0L137.20 0L137.20-11.92Q137.20-15.20 135.62-16.92Q134.04-18.64 131.16-18.64L131.16-18.64Q127.88-18.64 126-16.62Q124.12-14.60 124.12-11.04L124.12-11.04L124.12 0L121.28 0L121.28-11.92Q121.28-15.20 119.70-16.92Q118.12-18.64 115.20-18.64L115.20-18.64Q111.96-18.64 110.06-16.62Q108.16-14.60 108.16-11.04L108.16-11.04L108.16 0L105.32 0L105.32-21.04L108.04-21.04L108.04-17.20Q109.16-19.12 111.16-20.16Q113.16-21.20 115.76-21.20L115.76-21.20Q118.40-21.20 120.34-20.08Q122.28-18.96 123.24-16.76L123.24-16.76Q124.40-18.84 126.58-20.02Q128.76-21.20 131.56-21.20L131.56-21.20Z M165.88-21.04L168.72-21.04L168.72 0L166 0L166-3.84Q164.88-1.92 162.92-0.86Q160.96 0.20 158.44 0.20L158.44 0.20Q154.32 0.20 151.94-2.10Q149.56-4.40 149.56-8.84L149.56-8.84L149.56-21.04L152.40-21.04L152.40-9.12Q152.40-5.80 154.04-4.08Q155.68-2.36 158.72-2.36L158.72-2.36Q162.04-2.36 163.96-4.38Q165.88-6.40 165.88-10L165.88-10L165.88-21.04Z M189.40-21.20Q193.36-21.20 195.70-18.90Q198.04-16.60 198.04-12.20L198.04-12.20L198.04 0L195.20 0L195.20-11.92Q195.20-15.20 193.56-16.92Q191.92-18.64 188.88-18.64L188.88-18.64Q185.48-18.64 183.50-16.62Q181.52-14.60 181.52-11.04L181.52-11.04L181.52 0L178.68 0L178.68-21.04L181.40-21.04L181.40-17.16Q182.56-19.08 184.62-20.14Q186.68-21.20 189.40-21.20L189.40-21.20Z M207.76 0L207.76-21.04L210.60-21.04L210.60 0L207.76 0ZM209.20-25.64Q208.32-25.64 207.72-26.24Q207.12-26.84 207.12-27.68L207.12-27.68Q207.12-28.48 207.72-29.08Q208.32-29.68 209.20-29.68L209.20-29.68Q210.08-29.68 210.68-29.10Q211.28-28.52 211.28-27.72L211.28-27.72Q211.28-26.84 210.68-26.24Q210.08-25.64 209.20-25.64L209.20-25.64Z M229.24 0.20Q226.12 0.20 223.66-1.16Q221.20-2.52 219.80-4.98Q218.40-7.44 218.40-10.52L218.40-10.52Q218.40-13.60 219.80-16.04Q221.20-18.48 223.66-19.84Q226.12-21.20 229.24-21.20L229.24-21.20Q231.96-21.20 234.10-20.14Q236.24-19.08 237.48-17.04L237.48-17.04L235.36-15.60Q234.32-17.16 232.72-17.94Q231.12-18.72 229.24-18.72L229.24-18.72Q226.96-18.72 225.14-17.70Q223.32-16.68 222.30-14.80Q221.28-12.92 221.28-10.52L221.28-10.52Q221.28-8.08 222.30-6.22Q223.32-4.36 225.14-3.34Q226.96-2.32 229.24-2.32L229.24-2.32Q231.12-2.32 232.72-3.08Q234.32-3.84 235.36-5.40L235.36-5.40L237.48-3.96Q236.24-1.92 234.08-0.86Q231.92 0.20 229.24 0.20L229.24 0.20Z M252.40-21.20Q256.52-21.20 258.72-19.14Q260.92-17.08 260.92-13.04L260.92-13.04L260.92 0L258.20 0L258.20-3.28Q257.24-1.64 255.38-0.72Q253.52 0.20 250.96 0.20L250.96 0.20Q247.44 0.20 245.36-1.48Q243.28-3.16 243.28-5.92L243.28-5.92Q243.28-8.60 245.22-10.24Q247.16-11.88 251.40-11.88L251.40-11.88L258.08-11.88L258.08-13.16Q258.08-15.88 256.56-17.30Q255.04-18.72 252.12-18.72L252.12-18.72Q250.12-18.72 248.28-18.06Q246.44-17.40 245.12-16.24L245.12-16.24L243.84-18.36Q245.44-19.72 247.68-20.46Q249.92-21.20 252.40-21.20L252.40-21.20ZM251.40-2.04Q253.80-2.04 255.52-3.14Q257.24-4.24 258.08-6.32L258.08-6.32L258.08-9.76L251.48-9.76Q246.08-9.76 246.08-6L246.08-6Q246.08-4.16 247.48-3.10Q248.88-2.04 251.40-2.04L251.40-2.04Z M280.72-3.32L281.72-1.28Q280.92-0.56 279.74-0.18Q278.56 0.20 277.28 0.20L277.28 0.20Q274.32 0.20 272.72-1.40Q271.12-3 271.12-5.92L271.12-5.92L271.12-18.64L267.36-18.64L267.36-21.04L271.12-21.04L271.12-25.64L273.96-25.64L273.96-21.04L280.36-21.04L280.36-18.64L273.96-18.64L273.96-6.08Q273.96-4.20 274.90-3.22Q275.84-2.24 277.60-2.24L277.60-2.24Q278.48-2.24 279.30-2.52Q280.12-2.80 280.72-3.32L280.72-3.32Z M288.88 0L288.88-21.04L291.72-21.04L291.72 0L288.88 0ZM290.32-25.64Q289.44-25.64 288.84-26.24Q288.24-26.84 288.24-27.68L288.24-27.68Q288.24-28.48 288.84-29.08Q289.44-29.68 290.32-29.68L290.32-29.68Q291.20-29.68 291.80-29.10Q292.40-28.52 292.40-27.72L292.40-27.72Q292.40-26.84 291.80-26.24Q291.20-25.64 290.32-25.64L290.32-25.64Z M310.24 0.20Q307.20 0.20 304.76-1.18Q302.32-2.56 300.92-5Q299.52-7.44 299.52-10.52L299.52-10.52Q299.52-13.60 300.92-16.04Q302.32-18.48 304.76-19.84Q307.20-21.20 310.24-21.20L310.24-21.20Q313.28-21.20 315.72-19.84Q318.16-18.48 319.54-16.04Q320.92-13.60 320.92-10.52L320.92-10.52Q320.92-7.44 319.54-5Q318.16-2.56 315.72-1.18Q313.28 0.20 310.24 0.20L310.24 0.20ZM310.24-2.32Q312.48-2.32 314.26-3.34Q316.04-4.36 317.04-6.24Q318.04-8.12 318.04-10.52L318.04-10.52Q318.04-12.92 317.04-14.80Q316.04-16.68 314.26-17.70Q312.48-18.72 310.24-18.72L310.24-18.72Q308.00-18.72 306.22-17.70Q304.44-16.68 303.42-14.80Q302.40-12.92 302.40-10.52L302.40-10.52Q302.40-8.12 303.42-6.24Q304.44-4.36 306.22-3.34Q308.00-2.32 310.24-2.32L310.24-2.32Z M339.44-21.20Q343.40-21.20 345.74-18.90Q348.08-16.60 348.08-12.20L348.08-12.20L348.08 0L345.24 0L345.24-11.92Q345.24-15.20 343.60-16.92Q341.96-18.64 338.92-18.64L338.92-18.64Q335.52-18.64 333.54-16.62Q331.56-14.60 331.56-11.04L331.56-11.04L331.56 0L328.72 0L328.72-21.04L331.44-21.04L331.44-17.16Q332.60-19.08 334.66-20.14Q336.72-21.20 339.44-21.20L339.44-21.20Z"/></g>
</svg>
</g><g opacity="1" transform="rotate(0 221.7301 156.2011)">
<svg width="223.2067" height="120" x="221.7301" y="156.2011" version="1.1" preserveAspectRatio="none" viewBox="1.68 -28.88 54.76 29.44">
  <g transform="matrix(1 0 0 1 0 0)" class="companyName"><path id="id-D6z1nYkh2" d="M12.60-28.32Q19.68-28.32 23.20-24.78Q26.72-21.24 26.72-14.48L26.72-14.48Q26.72-10.12 25-6.84Q23.28-3.56 20.02-1.78Q16.76 0 12.24 0L12.24 0L9.92-0.04Q7.68-0.12 6.64-0.12L6.64-0.12Q3.36-0.12 1.68 0L1.68 0L1.68-0.80Q3.12-0.88 3.78-1.12Q4.44-1.36 4.68-2.04Q4.92-2.72 4.92-4.24L4.92-4.24L4.92-24.08Q4.92-25.60 4.68-26.28Q4.44-26.96 3.78-27.20Q3.12-27.44 1.68-27.52L1.68-27.52L1.68-28.32Q3.08-28.20 5.56-28.20L5.56-28.20L8.96-28.24Q11.68-28.32 12.60-28.32L12.60-28.32ZM11.60-27.60Q10.36-27.60 9.74-27.32Q9.12-27.04 8.88-26.32Q8.64-25.60 8.64-24.16L8.64-24.16L8.64-4.16Q8.64-2.72 8.88-2Q9.12-1.28 9.74-1Q10.36-0.72 11.64-0.72L11.64-0.72Q15.88-0.72 18.32-2.26Q20.76-3.80 21.74-6.76Q22.72-9.72 22.72-14.32L22.72-14.32Q22.72-18.92 21.64-21.82Q20.56-24.72 18.14-26.16Q15.72-27.60 11.60-27.60L11.60-27.60Z M43.76-28.88Q47.56-28.88 50.42-27.16Q53.28-25.44 54.86-22.18Q56.44-18.92 56.44-14.40L56.44-14.40Q56.44-10 54.82-6.60Q53.20-3.20 50.30-1.32Q47.40 0.56 43.72 0.56L43.72 0.56Q39.92 0.56 37.06-1.16Q34.20-2.88 32.62-6.14Q31.04-9.40 31.04-13.92L31.04-13.92Q31.04-18.32 32.66-21.72Q34.28-25.12 37.18-27Q40.08-28.88 43.76-28.88L43.76-28.88ZM43.60-28.16Q41.04-28.16 39.10-26.38Q37.16-24.60 36.10-21.40Q35.04-18.20 35.04-14.08L35.04-14.08Q35.04-9.92 36.22-6.76Q37.40-3.60 39.40-1.88Q41.40-0.16 43.88-0.16L43.88-0.16Q46.44-0.16 48.38-1.94Q50.32-3.72 51.38-6.92Q52.44-10.12 52.44-14.24L52.44-14.24Q52.44-18.40 51.26-21.56Q50.08-24.72 48.08-26.44Q46.08-28.16 43.60-28.16L43.60-28.16Z"/></g>
</svg>
</g></svg></svg>